<?xml version="1.0" encoding="iso-8859-1"?>
<!-- Generator: Adobe Illustrator 16.0.0, SVG Export Plug-In . SVG Version: 6.00 Build 0)  -->
<!DOCTYPE svg PUBLIC "-//W3C//DTD SVG 1.1//EN" "http://www.w3.org/Graphics/SVG/1.1/DTD/svg11.dtd">
<svg version="1.1" id="Capa_1" xmlns="http://www.w3.org/2000/svg" xmlns:xlink="http://www.w3.org/1999/xlink" x="0px" y="0px"
	 width="106.048px" height="106.048px" viewBox="0 0 106.048 106.048" style="enable-background:new 0 0 106.048 106.048;"
	 xml:space="preserve">
<g>
	<path style="fill:#010002;" d="M41.787,37.831c-0.72-0.502-0.901-1.504-0.386-2.237c0.35-0.502,0.932-0.626,1.504-0.551
		l1.476-2.121l1.124,0.79l-1.473,2.115c0.264,0.515,0.35,1.103,0,1.608C43.522,38.162,42.52,38.341,41.787,37.831z M0,84.838V21.209
		C0,9.543,9.543,0,21.209,0h63.628c11.667,0,21.21,9.543,21.21,21.209v63.629c0,11.666-9.543,21.21-21.21,21.21H21.209
		C9.543,106.048,0,96.504,0,84.838z M19.931,66.58l2.063-2.951c-5.652-4.853-6.872-13.241-2.52-19.48
		c4.645-6.633,13.787-8.251,20.425-3.606c6.633,4.634,8.256,13.781,3.617,20.425c-4.427,6.328-12.938,8.037-19.48,4.133
		l-2.063,2.956c8.176,5.028,18.929,2.946,24.498-5.033c4.06-5.805,4.199-13.116,1.104-18.97l3.759-5.378
		c0.831-1.193,0.536-2.848-0.652-3.679l-3.956-2.773l1.872-1.942c0.593,0.487,1.315,0.79,2.084,0.79c0.445,0,0.88-0.096,1.282-0.28
		l2.785-1.284c1.041-0.487,1.631-1.509,1.745-2.641l3.056-0.481c0.041,0.091,0.041,0.184,0.093,0.274
		c0.43,0.738,1.103,1.264,1.896,1.471l2.956,0.795c0.254,0.067,0.523,0.111,0.792,0.111c0.824,0,1.585-0.354,2.196-0.919
		l3.086,1.921c-0.155,0.466-0.218,0.947-0.146,1.437l0.482,3.021c0.207,1.29,1.217,2.255,2.511,2.556v4.111h-4.546
		c-1.455,0-2.651,1.186-2.651,2.639v6.55c-5.893,3.024-9.963,9.104-9.963,16.188c0,9.6,7.415,17.377,16.824,18.123v-3.604
		c-7.415-0.736-13.226-6.918-13.226-14.52c0-8.1,6.561-14.665,14.67-14.665c8.094,0,14.664,6.565,14.664,14.665
		c0,7.73-6.006,14.001-13.598,14.561v3.604c9.58-0.559,17.202-8.445,17.202-18.164c0-7.084-4.08-13.153-9.974-16.188v-6.532
		c0-1.452-1.19-2.641-2.641-2.641h-4.919V37.01c0.72-0.207,1.377-0.567,1.833-1.144c0.569-0.718,0.808-1.587,0.663-2.457
		l-0.481-3.021c-0.274-1.74-2.004-2.985-3.941-2.651c-0.605,0.096-1.129,0.375-1.604,0.732l-3.221-2.009
		c0-0.018,0.01-0.034,0.015-0.049c0.233-0.88,0.146-1.796-0.259-2.582c-0.419-0.808-1.118-1.385-1.973-1.607l-2.962-0.795
		c-1.683-0.445-3.542,0.699-4.028,2.52c-0.047,0.163-0.011,0.334-0.036,0.507l-3.07,0.489c-0.809-1.654-2.781-2.464-4.368-1.739
		l-2.778,1.279c-1.543,0.714-2.185,2.586-1.543,4.272l-2.317,2.397l-3.78-2.641c-1.193-0.834-2.848-0.542-3.679,0.652l-3.754,5.372
		c-6.571-0.893-13.391,1.748-17.45,7.555C11.035,49.948,12.653,60.584,19.931,66.58z M73.415,35.203v-0.844
		c0-0.516,0.409-0.927,0.922-0.927c0.518,0,0.933,0.411,0.933,0.927v0.678c0.145-0.101,0.352-0.121,0.461-0.264
		c0.259-0.324,0.367-0.712,0.305-1.087l-0.486-3.021c-0.114-0.712-0.798-1.227-1.626-1.227c-0.108,0-0.218,0.013-0.315,0.028
		c-0.058,0.01-0.089,0.067-0.141,0.085c0.456,0.285,0.591,0.885,0.311,1.341c-0.186,0.295-0.507,0.466-0.833,0.466
		c-0.171,0-0.357-0.055-0.519-0.155l-0.243-0.143c0,0.055-0.052,0.106-0.041,0.155l0.492,3.021
		C72.695,34.667,73.012,34.991,73.415,35.203z M75.207,43.087h-1.372v2.576c-0.513,0.271-0.917,0.707-0.917,1.325
		c0,0.881,0.715,1.603,1.605,1.603s1.605-0.722,1.605-1.603c0-0.618-0.404-1.054-0.922-1.325V43.087z M50.419,27.063
		c0.373,0.349,0.378,0.939,0.023,1.31l-0.616,0.637c0.44,0.295,0.961,0.401,1.406,0.194l2.775-1.281
		c0.315-0.143,0.486-0.44,0.632-0.759l-0.492,0.08c-0.052,0.011-0.108,0.016-0.15,0.016c-0.481,0-0.891-0.339-0.968-0.828
		c-0.086-0.536,0.284-1.033,0.812-1.119l0.404-0.062c-0.321-0.334-0.694-0.58-1.129-0.58c-0.199,0-0.386,0.044-0.555,0.116
		l-2.777,1.284c-0.42,0.197-0.643,0.606-0.732,1.072l0.054-0.06C49.467,26.714,50.055,26.708,50.419,27.063z M63.049,24.847
		c0.088,0.536-0.279,1.033-0.808,1.119l-0.715,0.111c0.15,0.127,0.27,0.319,0.466,0.371l2.957,0.792
		c0.306,0.083,0.621,0.01,0.911-0.129l-0.389-0.244c-0.455-0.285-0.601-0.885-0.315-1.341c0.29-0.461,0.891-0.604,1.347-0.318
		l0.274,0.171c-0.011-0.257,0.041-0.526-0.067-0.749c-0.192-0.365-0.503-0.626-0.87-0.733l-2.957-0.789
		c-0.113-0.031-0.228-0.042-0.336-0.042c-0.606,0-1.129,0.461-1.403,1.083l0.787-0.122C62.489,23.912,62.966,24.306,63.049,24.847z"
		/>
</g>
<g>
</g>
<g>
</g>
<g>
</g>
<g>
</g>
<g>
</g>
<g>
</g>
<g>
</g>
<g>
</g>
<g>
</g>
<g>
</g>
<g>
</g>
<g>
</g>
<g>
</g>
<g>
</g>
<g>
</g>
</svg>
