<?xml version="1.0" standalone="no"?>
<!DOCTYPE svg PUBLIC "-//W3C//DTD SVG 20010904//EN"
 "http://www.w3.org/TR/2001/REC-SVG-20010904/DTD/svg10.dtd">
<svg version="1.0" xmlns="http://www.w3.org/2000/svg"
 width="1051.000000pt" height="1280.000000pt" viewBox="0 0 1051.000000 1280.000000"
 preserveAspectRatio="xMidYMid meet">
<g transform="translate(0.000000,1280.000000) scale(0.100000,-0.100000)"
fill="#000000" stroke="none">
<path d="M4850 12794 c-1590 -41 -2667 -107 -3808 -235 l-103 -12 -447 -420
c-274 -257 -456 -435 -469 -460 -27 -47 -29 -84 -8 -153 20 -67 72 -147 216
-326 152 -190 160 -203 235 -378 221 -519 385 -1124 458 -1690 68 -525 79
-1174 26 -1570 -38 -283 -91 -523 -259 -1175 -121 -468 -164 -718 -181 -1038
-40 -767 176 -1589 605 -2302 649 -1080 1547 -1906 2695 -2479 239 -119 351
-169 625 -278 186 -74 568 -207 746 -258 l77 -22 212 66 c1173 367 2129 917
2889 1661 416 407 735 810 1036 1309 429 712 644 1529 605 2303 -15 294 -59
559 -154 933 -24 96 -74 290 -109 430 -147 576 -190 829 -207 1224 -10 246 1
662 26 926 63 681 232 1357 488 1960 75 175 83 188 235 378 144 179 196 259
216 326 21 69 19 106 -7 153 -14 25 -196 203 -470 460 l-447 420 -103 12
c-1002 112 -1923 175 -3163 216 -465 15 -1219 25 -1455 19z"/>
</g>
</svg>
